<?xml version="1.0" standalone="no"?>
<!DOCTYPE svg PUBLIC "-//W3C//DTD SVG 20010904//EN"
 "http://www.w3.org/TR/2001/REC-SVG-20010904/DTD/svg10.dtd">
<svg version="1.0" xmlns="http://www.w3.org/2000/svg"
 width="260.000000pt" height="260.000000pt" viewBox="0 0 260.000000 260.000000"
 preserveAspectRatio="xMidYMid meet">
<metadata>
Created by potrace 1.11, written by Peter Selinger 2001-2013
</metadata>
<g transform="translate(0.000000,260.000000) scale(0.100000,-0.100000)"
fill="#000000" stroke="none">
<path d="M1230 2561 c-53 -12 -85 -51 -96 -115 -3 -21 -8 -48 -10 -60 -3 -11
-7 -32 -10 -46 -2 -14 -9 -45 -14 -70 -5 -25 -12 -56 -14 -70 -2 -14 -7 -36
-10 -50 -3 -14 -8 -36 -10 -50 -3 -14 -48 -239 -101 -500 -52 -261 -97 -484
-99 -495 -2 -11 -27 -133 -54 -270 -28 -138 -53 -264 -56 -280 -3 -17 -8 -39
-10 -50 -3 -11 -16 -74 -30 -140 -13 -66 -27 -134 -31 -151 -8 -38 15 -97 47
-118 18 -12 64 -16 208 -19 102 -2 199 0 216 5 44 12 66 40 71 92 5 42 3 48
-30 81 -34 34 -37 35 -119 36 -45 1 -99 1 -119 1 l-36 -1 99 487 c54 268 101
503 104 522 3 19 12 62 19 95 8 33 16 71 18 85 3 14 21 105 41 202 20 98 36
188 36 200 0 38 18 6 29 -52 5 -30 29 -143 51 -250 23 -107 43 -206 46 -220 2
-14 9 -45 14 -70 6 -25 12 -54 14 -65 3 -11 9 -40 15 -65 5 -25 12 -58 15 -75
8 -40 12 -62 37 -179 11 -56 22 -110 25 -121 2 -11 15 -76 30 -145 14 -69 27
-132 29 -140 2 -8 13 -62 25 -120 24 -114 27 -128 36 -180 9 -48 30 -87 57
-105 33 -21 392 -26 429 -6 61 32 74 124 25 168 -31 29 -47 32 -184 35 -68 1
-123 3 -123 4 0 0 -30 142 -66 315 -36 173 -74 355 -84 404 -10 50 -32 155
-49 235 -45 217 -117 561 -141 680 -12 58 -25 121 -30 140 -5 19 -12 51 -15
70 -3 19 -17 86 -31 148 -13 63 -26 127 -29 144 -17 93 -69 144 -135 129z"/>
</g>
</svg>
