<?xml version="1.0" standalone="no"?>
<!DOCTYPE svg PUBLIC "-//W3C//DTD SVG 20010904//EN"
 "http://www.w3.org/TR/2001/REC-SVG-20010904/DTD/svg10.dtd">
<svg version="1.0" xmlns="http://www.w3.org/2000/svg"
 width="260.000000pt" height="260.000000pt" viewBox="0 0 260.000000 260.000000"
 preserveAspectRatio="xMidYMid meet">
<metadata>
Created by potrace 1.11, written by Peter Selinger 2001-2013
</metadata>
<g transform="translate(0.000000,260.000000) scale(0.100000,-0.100000)"
fill="#000000" stroke="none">
<path d="M0 1300 l0 -1300 1300 0 1300 0 0 1300 0 1300 -1300 0 -1300 0 0
-1300z m1291 842 c20 -17 40 -102 179 -768 l157 -749 89 -5 c49 -3 99 -10 110
-17 41 -24 45 -73 9 -108 -23 -24 -29 -25 -158 -25 -114 0 -138 3 -156 17 -18
15 -40 110 -146 617 -69 329 -125 602 -126 605 -1 8 -206 -990 -214 -1045 l-7
-42 80 -3 c61 -3 85 -9 101 -23 27 -25 28 -79 1 -106 -18 -18 -33 -20 -160
-20 -136 0 -142 1 -165 25 -14 13 -25 32 -25 42 0 10 71 371 159 802 141 696
161 787 181 803 28 23 62 23 91 0z"/>
</g>
</svg>
